<svg xmlns="http://www.w3.org/2000/svg" width="25" height="24" viewBox="0 0 25 24" fill="none">
  <path d="M10.801 1.72673C11.2575 0.321949 13.2449 0.321947 13.7013 1.72673L15.4417 7.08307C15.6458 7.71131 16.2312 8.13666 16.8918 8.13666H22.5238C24.0009 8.13666 24.615 10.0268 23.42 10.895L18.8637 14.2054C18.3292 14.5937 18.1056 15.2819 18.3098 15.9101L20.0501 21.2665C20.5066 22.6712 18.8987 23.8394 17.7038 22.9712L13.1474 19.6608C12.613 19.2725 11.8893 19.2725 11.3549 19.6608L6.79854 22.9712C5.60357 23.8394 3.99574 22.6712 4.45218 21.2665L6.19256 15.9101C6.39669 15.2819 6.17307 14.5937 5.63866 14.2054L1.08228 10.895C-0.112698 10.0268 0.501437 8.13666 1.97851 8.13666H7.61051C8.27107 8.13666 8.85651 7.71131 9.06064 7.08307L10.801 1.72673Z" fill="url(#paint0_linear_1972_2218)"/>
  <defs>
    <linearGradient id="paint0_linear_1972_2218" x1="-0.103898" y1="13.4697" x2="44.1926" y2="13.4697" gradientUnits="userSpaceOnUse">
      <stop stop-color="#F0913E"/>
      <stop offset="0.270625" stop-color="#F0913E"/>
      <stop offset="0.280008" stop-color="#D6D6D6"/>
    </linearGradient>
  </defs>
</svg>