<svg
                xmlns="http://www.w3.org/2000/svg"
                width="49"
                height="47"
                viewBox="0 0 49 47"
                fill="none"
              >
                <path
                  d="M21.6168 2.94049C22.5312 0.126401 26.5124 0.126403 27.4267 2.94049L30.9131 13.6704C31.322 14.9289 32.4948 15.781 33.818 15.781H45.1002C48.0591 15.781 49.2893 19.5673 46.8955 21.3065L37.7681 27.938C36.6975 28.7158 36.2496 30.0945 36.6585 31.353L40.1449 42.0829C41.0592 44.897 37.8384 47.2371 35.4446 45.4979L26.3171 38.8664C25.2466 38.0886 23.797 38.0886 22.7264 38.8664L13.599 45.4979C11.2052 47.2371 7.98433 44.897 8.89868 42.0829L12.3851 31.353C12.794 30.0945 12.346 28.7158 11.2755 27.938L2.14802 21.3065C-0.245785 19.5673 0.984467 15.781 3.94337 15.781H15.2255C16.5488 15.781 17.7215 14.9289 18.1305 13.6704L21.6168 2.94049Z"
                  fill="#FFCF33"
                />
              </svg>