<svg
                xmlns="http://www.w3.org/2000/svg"
                width="49"
                height="47"
                viewBox="0 0 49 47"
                fill="none"
              >
                <path
                  d="M21.57 2.94049C22.4843 0.126401 26.4655 0.126403 27.3798 2.94049L30.8662 13.6704C31.2751 14.9289 32.4479 15.781 33.7712 15.781H45.0533C48.0122 15.781 49.2425 19.5673 46.8487 21.3065L37.7212 27.938C36.6507 28.7158 36.2027 30.0945 36.6116 31.353L40.098 42.0829C41.0123 44.897 37.7915 47.2371 35.3977 45.4979L26.2703 38.8664C25.1997 38.0886 23.7501 38.0886 22.6795 38.8664L13.5521 45.4979C11.1583 47.2371 7.93746 44.897 8.85181 42.0829L12.3382 31.353C12.7471 30.0945 12.2991 28.7158 11.2286 27.938L2.10114 21.3065C-0.29266 19.5673 0.937592 15.781 3.89649 15.781H15.1786C16.5019 15.781 17.6747 14.9289 18.0836 13.6704L21.57 2.94049Z"
                  fill="url(#paint0_linear_1972_2189)"
                />
                <defs>
                  <linearGradient
                    id="paint0_linear_1972_2189"
                    x1="-0.275028"
                    y1="26.4643"
                    x2="88.4607"
                    y2="26.4643"
                    gradientUnits="userSpaceOnUse"
                  >
                    <stop stop-color="#FFCF33" />
                    <stop offset="0.270625" stop-color="#FFCF33" />
                    <stop offset="0.280008" stop-color="#D6D6D6" />
                  </linearGradient>
                </defs>
              </svg>