<svg width="314" height="200" viewBox="0 0 314 200" fill="none" xmlns="http://www.w3.org/2000/svg">
<g clip-path="url(#clip0_1972_2133)">
<path d="M130.799 140.301H256.918C271.271 140.301 283.374 128.666 283.951 114.314L286.683 46.4628C286.869 41.8341 283.268 38.082 278.64 38.082H143.294C138.666 38.082 134.763 41.8341 134.576 46.4628L131.845 114.314C131.268 128.666 119.164 140.301 104.812 140.301H130.799Z" fill="#823B82"/>
<path opacity="0.7" d="M130.799 140.301H256.918C271.271 140.301 283.374 128.666 283.951 114.314L286.683 46.4628C286.869 41.8341 283.268 38.082 278.64 38.082H143.294C138.666 38.082 134.763 41.8341 134.576 46.4628L131.845 114.314C131.268 128.666 119.164 140.301 104.812 140.301H130.799Z" fill="white"/>
<path opacity="0.6" d="M265.49 68.0009H153.901C152.381 68.0009 151.199 66.7692 151.26 65.2497L151.553 57.9856C151.613 56.4661 152.895 55.2344 154.415 55.2344H266.004C267.523 55.2344 268.705 56.4661 268.645 57.9856L268.352 65.2497C268.29 66.7692 267.009 68.0009 265.49 68.0009Z" fill="white"/>
<path opacity="0.6" d="M265.692 81.7168H152.602C151.496 81.7168 150.637 80.8206 150.681 79.716L150.792 76.9657C150.837 75.861 151.768 74.9648 152.873 74.9648H265.962C267.067 74.9648 267.928 75.861 267.883 76.9657L267.773 79.716C267.729 80.8206 266.797 81.7168 265.692 81.7168Z" fill="white"/>
<path opacity="0.6" d="M265.278 91.9707H152.188C151.082 91.9707 150.222 91.0745 150.267 89.9699L150.378 87.2196C150.422 86.115 151.354 85.2188 152.459 85.2188H265.548C266.653 85.2188 267.514 86.115 267.469 87.2196L267.358 89.9699C267.315 91.0745 266.383 91.9707 265.278 91.9707Z" fill="white"/>
<path d="M231.977 114.311L235.541 25.788C236.118 11.4356 224.951 -0.199219 210.599 -0.199219H84.4794H58.4922C72.8446 -0.199219 84.0112 11.4356 83.4337 25.788L79.8703 114.311C79.2928 128.663 97.3104 140.298 111.663 140.298H230.931H256.919C242.566 140.298 231.4 128.663 231.977 114.311Z" fill="#823B82"/>
<path d="M204.362 198.964H8.94304C4.27696 198.964 0.64726 195.182 0.835099 190.516L6.34131 53.7098C6.52915 49.0437 10.4635 45.2617 15.1296 45.2617H210.549C215.215 45.2617 218.845 49.0437 218.657 53.7098L213.15 190.516C212.963 195.182 209.028 198.964 204.362 198.964Z" fill="white"/>
<path d="M204.362 199.428H8.94294C6.55897 199.428 4.35349 198.499 2.73302 196.812C1.11162 195.122 0.270554 192.879 0.36681 190.493L5.87395 53.6857C6.07207 48.7804 10.2242 44.7891 15.1295 44.7891H210.549C212.933 44.7891 215.137 45.718 216.758 47.4048C218.379 49.0935 219.22 51.3373 219.124 53.724L213.617 190.531C213.42 195.437 209.267 199.428 204.362 199.428ZM15.1295 45.7255C10.7185 45.7255 6.9851 49.314 6.80847 53.7259L1.30133 190.533C1.21536 192.662 1.96297 194.662 3.40681 196.165C4.84971 197.667 6.81503 198.494 8.94294 198.494H204.361C208.772 198.494 212.506 194.905 212.682 190.493L218.189 53.6867C218.275 51.5578 217.528 49.557 216.083 48.0543C214.641 46.5525 212.675 45.7255 210.549 45.7255H15.1295Z" fill="#823B82"/>
<path d="M205.038 52.7617H20.0279C16.7384 52.7617 13.9647 55.4279 13.8329 58.7174L9.35938 169.846H206.28L210.754 58.7174C210.887 55.4279 208.327 52.7617 205.038 52.7617Z" fill="#823B82"/>
<path opacity="0.3" d="M37.3202 44.7891L32.8953 154.729C32.7701 157.836 35.1877 160.354 38.294 160.354H179.151C182.257 160.354 184.877 157.836 185.002 154.729L189.427 44.79L37.3202 44.7891Z" fill="black"/>
<path d="M184.612 -0.199219H58.4921C44.1397 -0.199219 32.0367 11.4356 31.4591 25.788L26.1922 156.643C26.0669 159.749 28.4836 162.268 31.5909 162.268H172.448C175.554 162.268 178.174 159.749 178.299 156.643L183.566 25.788C184.143 11.4356 196.247 -0.199219 210.599 -0.199219H184.612Z" fill="#823B82"/>
<path opacity="0.7" d="M184.612 -0.199219H58.4921C44.1397 -0.199219 32.0367 11.4356 31.4591 25.788L26.1922 156.643C26.0669 159.749 28.4836 162.268 31.5909 162.268H172.448C175.554 162.268 178.174 159.749 178.299 156.643L183.566 25.788C184.143 11.4356 196.247 -0.199219 210.599 -0.199219H184.612Z" fill="white"/>
<path d="M213.985 170.317H1.67039C1.41246 170.317 1.20312 170.108 1.20312 169.85C1.20312 169.592 1.41246 169.383 1.67039 169.383H213.985C214.243 169.383 214.452 169.592 214.452 169.85C214.452 170.108 214.243 170.317 213.985 170.317Z" fill="#823B82"/>
<path opacity="0.1" d="M169.883 90.1027H39.9636C38.2142 90.1027 36.8535 88.685 36.9245 86.9356L38.9263 37.1983C38.9964 35.4489 40.472 34.0312 42.2205 34.0312H172.14C173.889 34.0312 175.25 35.4489 175.18 37.1983L173.178 86.9356C173.106 88.685 171.631 90.1027 169.883 90.1027Z" fill="#823B82"/>
<path opacity="0.6" d="M111.243 146.176H37.7058C35.9564 146.176 34.5957 144.758 34.6667 143.009L36.4218 99.3976C36.4919 97.6481 37.9675 96.2305 39.716 96.2305H113.253C115.002 96.2305 116.363 97.6481 116.292 99.3976L114.537 143.009C114.467 144.758 112.992 146.176 111.243 146.176Z" fill="#823B82"/>
<path d="M83.1684 121.201L69.3748 113.047L68.7188 129.353L83.1684 121.201Z" fill="white"/>
<path d="M167.63 146.176H124.018C122.269 146.176 120.908 144.758 120.979 143.009L122.734 99.3976C122.804 97.6481 124.28 96.2305 126.028 96.2305H169.64C171.389 96.2305 172.75 97.6481 172.68 99.3976L170.925 143.009C170.854 144.758 169.379 146.176 167.63 146.176Z" fill="white"/>
<path opacity="0.3" d="M126.743 139.152L128.188 103.251C128.22 102.47 128.879 101.836 129.66 101.836H165.562C166.343 101.836 166.951 102.47 166.919 103.251L165.475 139.152C165.443 139.934 164.784 140.567 164.003 140.567H128.101C127.32 140.567 126.712 139.934 126.743 139.152Z" fill="#823B82"/>
<path d="M153.627 123.327L151.659 126.472L145.248 114.711L129.07 140.566H163.024L153.627 123.327Z" fill="#823B82"/>
<path d="M162.776 110.183C162.676 112.658 160.591 114.663 158.116 114.663C155.641 114.663 153.716 112.658 153.816 110.183C153.916 107.709 156.003 105.703 158.477 105.703C160.95 105.703 162.876 107.709 162.776 110.183Z" fill="white"/>
<path opacity="0.6" d="M152.449 78.2538L22.8077 86.7467C21.062 86.8608 19.6116 85.5356 19.5677 83.7853L18.3135 34.0237C18.2696 32.2734 19.649 30.7622 21.3937 30.6482L151.035 22.1553C152.78 22.0413 154.231 23.3664 154.275 25.1168L155.529 74.8783C155.574 76.6277 154.194 78.1389 152.449 78.2538Z" fill="white"/>
<path d="M87.3545 48.1154L89.194 51.5558C89.2401 51.6412 89.3255 51.6972 89.4237 51.705L93.351 52.0191C93.5973 52.0388 93.7023 52.3352 93.5296 52.5197L90.7674 55.4723C90.6987 55.5459 90.6693 55.647 90.6879 55.7432L91.4546 59.6067C91.5027 59.8491 91.2514 60.0523 91.0286 59.9512L87.4821 58.3356C87.3938 58.2953 87.2897 58.3022 87.2034 58.3542L83.7502 60.4283C83.5333 60.5579 83.2721 60.388 83.3085 60.1407L83.8788 56.1889C83.8925 56.0907 83.8581 55.9935 83.7865 55.9287L80.885 53.3472C80.7034 53.1852 80.7937 52.8761 81.0381 52.825L84.9369 51.9985C85.0341 51.9779 85.1165 51.9112 85.1578 51.8199L86.8186 48.1498C86.9226 47.9201 87.2397 47.8995 87.3545 48.1154Z" fill="url(#paint0_linear_1972_2133)"/>
<path d="M111.402 46.5567L113.242 49.9971C113.288 50.0825 113.373 50.1385 113.472 50.1463L117.399 50.4604C117.645 50.4801 117.75 50.7765 117.577 50.961L114.815 53.9136C114.747 53.9872 114.717 54.0883 114.736 54.1845L115.502 58.049C115.551 58.2914 115.299 58.4946 115.076 58.3935L111.53 56.7779C111.442 56.7376 111.338 56.7445 111.251 56.7965L107.798 58.8706C107.581 59.0011 107.32 58.8303 107.356 58.583L107.927 54.6311C107.94 54.533 107.906 54.4358 107.833 54.371L104.932 51.7895C104.75 51.6275 104.841 51.3183 105.085 51.2673L108.984 50.4408C109.081 50.4202 109.163 50.3535 109.205 50.2622L110.865 46.5921C110.97 46.3614 111.287 46.3408 111.402 46.5567Z" fill="url(#paint1_linear_1972_2133)"/>
<path d="M135.44 45.002L137.28 48.4425C137.326 48.5279 137.411 48.5838 137.51 48.5916L141.437 48.9058C141.683 48.9254 141.789 49.2218 141.616 49.4064L138.853 52.3589C138.785 52.4325 138.755 52.5336 138.774 52.6298L139.54 56.4943C139.589 56.7368 139.337 56.9399 139.115 56.8388L135.568 55.2232C135.48 55.1829 135.376 55.1898 135.289 55.2418L131.836 57.3159C131.619 57.4464 131.358 57.2756 131.394 57.0283L131.965 53.0765C131.978 52.9783 131.944 52.8811 131.872 52.8163L128.971 50.2348C128.789 50.0729 128.88 49.7636 129.124 49.7126L133.023 48.8861C133.12 48.8655 133.202 48.7988 133.244 48.7075L134.905 45.0374C135.008 44.8067 135.325 44.7861 135.44 45.002Z" fill="url(#paint2_linear_1972_2133)"/>
<path d="M63.3164 49.6701L65.1559 53.1105C65.202 53.1959 65.2874 53.2519 65.3856 53.2597L69.3129 53.5738C69.5593 53.5935 69.6653 53.8899 69.4915 54.0744L66.7294 57.027C66.6607 57.1006 66.6312 57.2017 66.6499 57.2979L67.4165 61.1614C67.4646 61.4038 67.2123 61.607 66.9905 61.5059L63.444 59.8903C63.3557 59.85 63.2517 59.8569 63.1653 59.9089L59.7121 61.983C59.4952 62.1135 59.2341 61.9427 59.2704 61.6954L59.8407 57.7436C59.8544 57.6454 59.8201 57.5482 59.7474 57.4834L56.8459 54.9019C56.6643 54.7399 56.7546 54.4307 56.999 54.3797L60.8978 53.5532C60.995 53.5326 61.0775 53.4658 61.1187 53.3746L62.7795 49.7045C62.8845 49.4748 63.2016 49.4542 63.3164 49.6701Z" fill="url(#paint3_linear_1972_2133)"/>
<path d="M39.2764 51.2281L41.1159 54.6685C41.162 54.7539 41.2474 54.8098 41.3455 54.8177L45.2728 55.1318C45.5192 55.1514 45.6242 55.4479 45.4515 55.6324L42.6893 58.585C42.6206 58.6586 42.5912 58.7597 42.6098 58.8559L43.3764 62.7194C43.4245 62.9618 43.1723 63.165 42.9504 63.0639L39.404 61.4482C39.3157 61.408 39.2116 61.4148 39.1252 61.4669L35.6721 63.5409C35.4551 63.6715 35.194 63.5007 35.2303 63.2533L35.8006 59.3015C35.8144 59.2034 35.78 59.1062 35.7084 59.0414L32.8068 56.4589C32.6253 56.2969 32.7155 55.9887 32.96 55.9367L36.8588 55.1102C36.9559 55.0896 37.0384 55.0228 37.0796 54.9315L38.7405 51.2614C38.8435 51.0337 39.1606 51.0131 39.2764 51.2281Z" fill="url(#paint4_linear_1972_2133)"/>
</g>
<defs>
<linearGradient id="paint0_linear_1972_2133" x1="87.2019" y1="47.9648" x2="87.2019" y2="60.4729" gradientUnits="userSpaceOnUse">
<stop stop-color="#FFB912"/>
<stop offset="1" stop-color="#C68C00"/>
</linearGradient>
<linearGradient id="paint1_linear_1972_2133" x1="111.249" y1="46.4062" x2="111.249" y2="58.9156" gradientUnits="userSpaceOnUse">
<stop stop-color="#FFB912"/>
<stop offset="1" stop-color="#C68C00"/>
</linearGradient>
<linearGradient id="paint2_linear_1972_2133" x1="135.288" y1="44.8516" x2="135.288" y2="57.3609" gradientUnits="userSpaceOnUse">
<stop stop-color="#FFB912"/>
<stop offset="1" stop-color="#C68C00"/>
</linearGradient>
<linearGradient id="paint3_linear_1972_2133" x1="63.1636" y1="49.5195" x2="63.1636" y2="62.028" gradientUnits="userSpaceOnUse">
<stop stop-color="#FFB912"/>
<stop offset="1" stop-color="#C68C00"/>
</linearGradient>
<linearGradient id="paint4_linear_1972_2133" x1="39.1238" y1="51.0781" x2="39.1238" y2="63.586" gradientUnits="userSpaceOnUse">
<stop stop-color="#FFB912"/>
<stop offset="1" stop-color="#C68C00"/>
</linearGradient>
<clipPath id="clip0_1972_2133">
<rect width="314" height="199.054" fill="white"/>
</clipPath>
</defs>
</svg>
