<svg xmlns="http://www.w3.org/2000/svg" width="25" height="24" viewBox="0 0 25 24" fill="none">
  <path d="M11.012 1.72673C11.4684 0.321949 13.4558 0.321947 13.9122 1.72673L15.6526 7.08307C15.8567 7.71131 16.4422 8.13666 17.1027 8.13666H22.7347C24.2118 8.13666 24.826 10.0268 23.631 10.895L19.0746 14.2054C18.5402 14.5937 18.3166 15.2819 18.5207 15.9101L20.2611 21.2665C20.7175 22.6712 19.1097 23.8394 17.9147 22.9712L13.3583 19.6608C12.8239 19.2725 12.1003 19.2725 11.5659 19.6608L7.00948 22.9712C5.81451 23.8394 4.20668 22.6712 4.66312 21.2665L6.4035 15.9101C6.60763 15.2819 6.38401 14.5937 5.8496 14.2054L1.29322 10.895C0.0982392 10.0268 0.712375 8.13666 2.18945 8.13666H7.82144C8.48201 8.13666 9.06745 7.71131 9.27158 7.08307L11.012 1.72673Z" fill="#F0913E"/>
</svg>