<svg xmlns="http://www.w3.org/2000/svg" width="43" height="42" viewBox="0 0 43 42" fill="none">
  <g clip-path="url(#clip0_1898_2830)">
    <path fill-rule="evenodd" clip-rule="evenodd" d="M10.0375 2.30943L27.6581 2.30075V8.96517L10.0375 8.97385C9.2416 8.97473 8.46634 8.72831 7.82519 8.27066L4.96892 6.22474C4.87521 6.15747 4.79906 6.0698 4.74658 5.96879C4.69411 5.86777 4.66677 5.75622 4.66677 5.64309C4.66677 5.52996 4.69411 5.4184 4.74658 5.31738C4.79906 5.21637 4.87521 5.1287 4.96892 5.06143L7.82817 3.01262C8.46731 2.55511 9.24032 2.30773 10.0345 2.30653L10.0375 2.30943ZM34.9121 8.95938L31.3849 8.96228V2.29785H34.924C36.8142 2.32679 38.2603 3.956 38.2603 5.62572C38.2603 7.29834 36.8142 8.93044 34.924 8.95938H34.9121ZM17.2288 15.6441C18.2276 16.0318 19.0773 16.4572 19.8138 16.8797V41.1529C18.6771 40.3251 17.4343 39.6441 16.1167 39.1273C13.9253 38.2765 10.7649 37.5733 5.94387 37.5733C5.5485 37.5733 5.16932 37.4208 4.88975 37.1495C4.61019 36.8782 4.45313 36.5101 4.45312 36.1264V15.3257C4.45312 14.942 4.61019 14.574 4.88975 14.3026C5.16932 14.0313 5.5485 13.8788 5.94387 13.8788C11.072 13.8788 14.62 14.6283 17.2288 15.6441ZM27.2347 39.1273C25.6247 39.7552 24.4947 40.4758 23.5377 41.15V16.8797C24.2741 16.4572 25.1268 16.0318 26.1256 15.6441C28.7344 14.6283 32.2824 13.8788 37.4105 13.8788C37.8059 13.8788 38.1851 14.0313 38.4647 14.3026C38.7442 14.574 38.9013 14.942 38.9013 15.3257V36.1264C38.9013 36.5101 38.7442 36.8782 38.4647 37.1495C38.1851 37.4208 37.8059 37.5733 37.4105 37.5733C32.5895 37.5733 29.4291 38.2736 27.2347 39.1273Z" fill="white" fill-opacity="0.8"/>
    <path fill-rule="evenodd" clip-rule="evenodd" d="M10.0375 2.30943L27.6581 2.30075V8.96517L10.0375 8.97385C9.2416 8.97473 8.46634 8.72831 7.82519 8.27066L4.96892 6.22474C4.87521 6.15747 4.79906 6.0698 4.74658 5.96879C4.69411 5.86777 4.66677 5.75622 4.66677 5.64309C4.66677 5.52996 4.69411 5.4184 4.74658 5.31738C4.79906 5.21637 4.87521 5.1287 4.96892 5.06143L7.82817 3.01262C8.46731 2.55511 9.24032 2.30773 10.0345 2.30653L10.0375 2.30943ZM34.9121 8.95938L31.3849 8.96228V2.29785H34.924C36.8142 2.32679 38.2603 3.956 38.2603 5.62572C38.2603 7.29834 36.8142 8.93044 34.924 8.95938H34.9121ZM17.2288 15.6441C18.2276 16.0318 19.0773 16.4572 19.8138 16.8797V41.1529C18.6771 40.3251 17.4343 39.6441 16.1167 39.1273C13.9253 38.2765 10.7649 37.5733 5.94387 37.5733C5.5485 37.5733 5.16932 37.4208 4.88975 37.1495C4.61019 36.8782 4.45313 36.5101 4.45312 36.1264V15.3257C4.45312 14.942 4.61019 14.574 4.88975 14.3026C5.16932 14.0313 5.5485 13.8788 5.94387 13.8788C11.072 13.8788 14.62 14.6283 17.2288 15.6441ZM27.2347 39.1273C25.6247 39.7552 24.4947 40.4758 23.5377 41.15V16.8797C24.2741 16.4572 25.1268 16.0318 26.1256 15.6441C28.7344 14.6283 32.2824 13.8788 37.4105 13.8788C37.8059 13.8788 38.1851 14.0313 38.4647 14.3026C38.7442 14.574 38.9013 14.942 38.9013 15.3257V36.1264C38.9013 36.5101 38.7442 36.8782 38.4647 37.1495C38.1851 37.4208 37.8059 37.5733 37.4105 37.5733C32.5895 37.5733 29.4291 38.2736 27.2347 39.1273Z" fill="url(#paint0_linear_1898_2830)" fill-opacity="0.8"/>
  </g>
  <defs>
    <linearGradient id="paint0_linear_1898_2830" x1="22.1281" y1="41.1529" x2="21.461" y2="4.04363" gradientUnits="userSpaceOnUse">
      <stop stop-color="white"/>
      <stop offset="1" stop-color="#FFEEC5"/>
    </linearGradient>
    <clipPath id="clip0_1898_2830">
      <rect width="41.7409" height="40.5132" fill="white" transform="translate(0.8125 0.637695)"/>
    </clipPath>
  </defs>
</svg>