<svg xmlns="http://www.w3.org/2000/svg" width="44" height="44" viewBox="0 0 44 44" fill="none">
  <path d="M7.85618 6.30811C6.69878 6.30811 5.58878 6.76788 4.77037 7.58629C3.95196 8.4047 3.49219 9.5147 3.49219 10.6721V21.3068C4.96989 19.4246 7.10988 18.1768 9.47583 17.8179C11.8418 17.459 14.2555 18.0161 16.2249 19.3755C18.1943 20.7349 19.5711 22.7943 20.0745 25.1337C20.5779 27.4732 20.17 29.9166 18.934 31.9657V34.5062H36.7257C37.8831 34.5062 38.9931 34.0465 39.8115 33.228C40.6299 32.4096 41.0897 31.2996 41.0897 30.1422V10.6721C41.0897 9.5147 40.6299 8.4047 39.8115 7.58629C38.9931 6.76788 37.8831 6.30811 36.7257 6.30811H7.85618ZM12.8916 14.3647H31.6903C32.0464 14.3647 32.388 14.5062 32.6398 14.758C32.8916 15.0098 33.0331 15.3514 33.0331 15.7075C33.0331 16.0636 32.8916 16.4051 32.6398 16.657C32.388 16.9088 32.0464 17.0502 31.6903 17.0502H12.8916C12.5354 17.0502 12.1939 16.9088 11.9421 16.657C11.6903 16.4051 11.5488 16.0636 11.5488 15.7075C11.5488 15.3514 11.6903 15.0098 11.9421 14.758C12.1939 14.5062 12.5354 14.3647 12.8916 14.3647ZM22.2909 25.1069C22.2909 24.7507 22.4324 24.4092 22.6842 24.1574C22.936 23.9056 23.2776 23.7641 23.6337 23.7641H31.6903C32.0464 23.7641 32.388 23.9056 32.6398 24.1574C32.8916 24.4092 33.0331 24.7507 33.0331 25.1069C33.0331 25.463 32.8916 25.8045 32.6398 26.0563C32.388 26.3082 32.0464 26.4496 31.6903 26.4496H23.6337C23.2776 26.4496 22.936 26.3082 22.6842 26.0563C22.4324 25.8045 22.2909 25.463 22.2909 25.1069ZM18.2626 27.121C18.2626 29.0797 17.4845 30.9581 16.0996 32.3431C14.7146 33.7281 12.8361 34.5062 10.8774 34.5062C8.91873 34.5062 7.04027 33.7281 5.65527 32.3431C4.27027 30.9581 3.49219 29.0797 3.49219 27.121C3.49219 25.1623 4.27027 23.2839 5.65527 21.8989C7.04027 20.5139 8.91873 19.7358 10.8774 19.7358C12.8361 19.7358 14.7146 20.5139 16.0996 21.8989C17.4845 23.2839 18.2626 25.1623 18.2626 27.121ZM16.9199 34.3209C15.2287 35.7447 13.0881 36.5239 10.8774 36.5204C8.66671 36.5239 6.52613 35.7447 4.83496 34.3209V39.8773C4.83501 40.1167 4.89907 40.3517 5.02049 40.558C5.14192 40.7644 5.31629 40.9345 5.52555 41.0507C5.73481 41.167 5.97136 41.2252 6.21068 41.2193C6.45 41.2135 6.6834 41.1437 6.8867 41.0173L10.8774 38.5332L14.8681 41.0173C15.0715 41.1438 15.305 41.2135 15.5445 41.2193C15.7839 41.2252 16.0206 41.1668 16.2299 41.0504C16.4392 40.934 16.6135 40.7637 16.7348 40.5572C16.8562 40.3507 16.92 40.1155 16.9199 39.876V34.3209Z" fill="white" fill-opacity="0.8"/>
  <path d="M7.85618 6.30811C6.69878 6.30811 5.58878 6.76788 4.77037 7.58629C3.95196 8.4047 3.49219 9.5147 3.49219 10.6721V21.3068C4.96989 19.4246 7.10988 18.1768 9.47583 17.8179C11.8418 17.459 14.2555 18.0161 16.2249 19.3755C18.1943 20.7349 19.5711 22.7943 20.0745 25.1337C20.5779 27.4732 20.17 29.9166 18.934 31.9657V34.5062H36.7257C37.8831 34.5062 38.9931 34.0465 39.8115 33.228C40.6299 32.4096 41.0897 31.2996 41.0897 30.1422V10.6721C41.0897 9.5147 40.6299 8.4047 39.8115 7.58629C38.9931 6.76788 37.8831 6.30811 36.7257 6.30811H7.85618ZM12.8916 14.3647H31.6903C32.0464 14.3647 32.388 14.5062 32.6398 14.758C32.8916 15.0098 33.0331 15.3514 33.0331 15.7075C33.0331 16.0636 32.8916 16.4051 32.6398 16.657C32.388 16.9088 32.0464 17.0502 31.6903 17.0502H12.8916C12.5354 17.0502 12.1939 16.9088 11.9421 16.657C11.6903 16.4051 11.5488 16.0636 11.5488 15.7075C11.5488 15.3514 11.6903 15.0098 11.9421 14.758C12.1939 14.5062 12.5354 14.3647 12.8916 14.3647ZM22.2909 25.1069C22.2909 24.7507 22.4324 24.4092 22.6842 24.1574C22.936 23.9056 23.2776 23.7641 23.6337 23.7641H31.6903C32.0464 23.7641 32.388 23.9056 32.6398 24.1574C32.8916 24.4092 33.0331 24.7507 33.0331 25.1069C33.0331 25.463 32.8916 25.8045 32.6398 26.0563C32.388 26.3082 32.0464 26.4496 31.6903 26.4496H23.6337C23.2776 26.4496 22.936 26.3082 22.6842 26.0563C22.4324 25.8045 22.2909 25.463 22.2909 25.1069ZM18.2626 27.121C18.2626 29.0797 17.4845 30.9581 16.0996 32.3431C14.7146 33.7281 12.8361 34.5062 10.8774 34.5062C8.91873 34.5062 7.04027 33.7281 5.65527 32.3431C4.27027 30.9581 3.49219 29.0797 3.49219 27.121C3.49219 25.1623 4.27027 23.2839 5.65527 21.8989C7.04027 20.5139 8.91873 19.7358 10.8774 19.7358C12.8361 19.7358 14.7146 20.5139 16.0996 21.8989C17.4845 23.2839 18.2626 25.1623 18.2626 27.121ZM16.9199 34.3209C15.2287 35.7447 13.0881 36.5239 10.8774 36.5204C8.66671 36.5239 6.52613 35.7447 4.83496 34.3209V39.8773C4.83501 40.1167 4.89907 40.3517 5.02049 40.558C5.14192 40.7644 5.31629 40.9345 5.52555 41.0507C5.73481 41.167 5.97136 41.2252 6.21068 41.2193C6.45 41.2135 6.6834 41.1437 6.8867 41.0173L10.8774 38.5332L14.8681 41.0173C15.0715 41.1438 15.305 41.2135 15.5445 41.2193C15.7839 41.2252 16.0206 41.1668 16.2299 41.0504C16.4392 40.934 16.6135 40.7637 16.7348 40.5572C16.8562 40.3507 16.92 40.1155 16.9199 39.876V34.3209Z" fill="url(#paint0_linear_1898_2846)" fill-opacity="0.8"/>
  <defs>
    <linearGradient id="paint0_linear_1898_2846" x1="22.783" y1="41.2197" x2="22.2895" y2="7.87323" gradientUnits="userSpaceOnUse">
      <stop stop-color="white"/>
      <stop offset="1" stop-color="#FFEEC5"/>
    </linearGradient>
  </defs>
</svg>