<svg xmlns="http://www.w3.org/2000/svg" width="37" height="36" viewBox="0 0 37 36" fill="none">
  <path d="M29.0498 3.28516H7.96959C5.54569 3.28516 3.5625 5.26835 3.5625 7.69225V28.7747C3.5625 31.1986 5.54569 33.1817 7.96959 33.1817H29.052C31.4759 33.1817 33.4591 31.1986 33.4591 28.7747V7.69225C33.4569 5.26835 31.4759 3.28516 29.0498 3.28516ZM28.7666 19.2421H25.2189V32.0778H19.9106V19.2421H17.2553V14.8174H19.9106V12.1621C19.9106 8.55273 21.409 6.40537 25.6729 6.40537H29.2173V10.829H27.0005C25.3434 10.829 25.2333 11.4493 25.2333 12.6028L25.2189 14.8174H29.2349L28.7666 19.2421Z" fill="black"/>
</svg>