<svg xmlns="http://www.w3.org/2000/svg" width="36" height="36" viewBox="0 0 36 36" fill="none">
  <path fill-rule="evenodd" clip-rule="evenodd" d="M8.964 2.34766C7.22521 2.34766 5.5576 3.03821 4.32786 4.26749C3.09812 5.49676 2.40692 7.1641 2.40625 8.90289V26.3902C2.40625 28.1294 3.09715 29.7974 4.32697 31.0272C5.55679 32.2571 7.22478 32.948 8.964 32.948H26.4513C28.1901 32.9473 29.8575 32.2561 31.0867 31.0264C32.316 29.7966 33.0066 28.129 33.0066 26.3902V8.90289C33.0059 7.16454 32.315 5.49757 31.0858 4.26838C29.8566 3.03918 28.1897 2.34832 26.4513 2.34766H8.964ZM28.3376 8.91296C28.3376 9.41389 28.1386 9.8943 27.7844 10.2485C27.4301 10.6027 26.9497 10.8017 26.4488 10.8017C25.9479 10.8017 25.4675 10.6027 25.1133 10.2485C24.759 9.8943 24.5601 9.41389 24.5601 8.91296C24.5601 8.41203 24.759 7.93162 25.1133 7.57741C25.4675 7.2232 25.9479 7.02421 26.4488 7.02421C26.9497 7.02421 27.4301 7.2232 27.7844 7.57741C28.1386 7.93162 28.3376 8.41203 28.3376 8.91296ZM17.7102 12.4084C16.3209 12.4084 14.9886 12.9603 14.0063 13.9426C13.0239 14.925 12.472 16.2573 12.472 17.6465C12.472 19.0358 13.0239 20.3681 14.0063 21.3505C14.9886 22.3328 16.3209 22.8847 17.7102 22.8847C19.0994 22.8847 20.4318 22.3328 21.4141 21.3505C22.3964 20.3681 22.9483 19.0358 22.9483 17.6465C22.9483 16.2573 22.3964 14.925 21.4141 13.9426C20.4318 12.9603 19.0994 12.4084 17.7102 12.4084ZM9.95119 17.6465C9.95119 15.5894 10.7684 13.6165 12.223 12.1619C13.6776 10.7073 15.6505 9.89007 17.7077 9.89007C19.7648 9.89007 21.7377 10.7073 23.1923 12.1619C24.6469 13.6165 25.4641 15.5894 25.4641 17.6465C25.4641 19.7037 24.6469 21.6766 23.1923 23.1312C21.7377 24.5858 19.7648 25.403 17.7077 25.403C15.6505 25.403 13.6776 24.5858 12.223 23.1312C10.7684 21.6766 9.95119 19.7037 9.95119 17.6465Z" fill="black"/>
</svg>