<svg xmlns="http://www.w3.org/2000/svg" width="54" height="54" viewBox="0 0 54 54" fill="none">
  <path d="M44.8876 37.9298C46.0543 37.9298 47.1732 37.4663 47.9982 36.6413C48.8232 35.8163 49.2867 34.6973 49.2867 33.5306V9.3352C49.2867 8.16847 48.8232 7.04952 47.9982 6.22452C47.1732 5.39952 46.0543 4.93604 44.8876 4.93604H21.704C22.4738 6.27778 22.8918 7.79549 22.8918 9.3352H44.8876V33.5306H25.0913V37.9298M33.8897 15.9339V20.3331H20.6922V48.9277H16.293V35.7302H11.8938V48.9277H7.49468V31.331H4.19531V20.3331C4.19531 19.1664 4.65879 18.0474 5.4838 17.2224C6.3088 16.3974 7.42774 15.9339 8.59447 15.9339H33.8897ZM18.4926 9.3352C18.4926 10.5019 18.0291 11.6209 17.2041 12.4459C16.3791 13.2709 15.2602 13.7344 14.0934 13.7344C12.9267 13.7344 11.8078 13.2709 10.9827 12.4459C10.1577 11.6209 9.69427 10.5019 9.69427 9.3352C9.69427 8.16847 10.1577 7.04952 10.9827 6.22452C11.8078 5.39952 12.9267 4.93604 14.0934 4.93604C15.2602 4.93604 16.3791 5.39952 17.2041 6.22452C18.0291 7.04952 18.4926 8.16847 18.4926 9.3352Z" fill="white" fill-opacity="0.8"/>
  <path d="M44.8876 37.9298C46.0543 37.9298 47.1732 37.4663 47.9982 36.6413C48.8232 35.8163 49.2867 34.6973 49.2867 33.5306V9.3352C49.2867 8.16847 48.8232 7.04952 47.9982 6.22452C47.1732 5.39952 46.0543 4.93604 44.8876 4.93604H21.704C22.4738 6.27778 22.8918 7.79549 22.8918 9.3352H44.8876V33.5306H25.0913V37.9298M33.8897 15.9339V20.3331H20.6922V48.9277H16.293V35.7302H11.8938V48.9277H7.49468V31.331H4.19531V20.3331C4.19531 19.1664 4.65879 18.0474 5.4838 17.2224C6.3088 16.3974 7.42774 15.9339 8.59447 15.9339H33.8897ZM18.4926 9.3352C18.4926 10.5019 18.0291 11.6209 17.2041 12.4459C16.3791 13.2709 15.2602 13.7344 14.0934 13.7344C12.9267 13.7344 11.8078 13.2709 10.9827 12.4459C10.1577 11.6209 9.69427 10.5019 9.69427 9.3352C9.69427 8.16847 10.1577 7.04952 10.9827 6.22452C11.8078 5.39952 12.9267 4.93604 14.0934 4.93604C15.2602 4.93604 16.3791 5.39952 17.2041 6.22452C18.0291 7.04952 18.4926 8.16847 18.4926 9.3352Z" fill="url(#paint0_linear_1898_2838)" fill-opacity="0.8"/>
  <defs>
    <linearGradient id="paint0_linear_1898_2838" x1="27.3312" y1="48.9277" x2="26.6779" y2="6.90919" gradientUnits="userSpaceOnUse">
      <stop stop-color="white"/>
      <stop offset="1" stop-color="#FFEEC5"/>
    </linearGradient>
  </defs>
</svg>