<svg width="267" height="219" viewBox="0 0 267 219" fill="none" xmlns="http://www.w3.org/2000/svg">
<path d="M169.085 210.125C165.288 219.038 156.214 221.254 148.836 214.989C145.049 211.955 140.339 210.327 135.498 210.378C130.657 210.429 125.982 212.156 122.259 215.269C115.007 221.636 105.807 219.662 101.921 210.813C99.818 206.431 96.28 202.91 91.9015 200.842C87.523 198.774 82.5706 198.284 77.8757 199.455C68.5865 202.065 61.2083 196.272 61.4234 186.569C61.4202 181.699 59.75 176.978 56.6938 173.2C53.6376 169.423 49.3818 166.819 44.6421 165.828C35.1377 164.134 30.9866 155.641 35.4161 147.059C37.5199 142.674 38.0582 137.694 36.9403 132.956C35.8224 128.218 33.1165 124.012 29.2781 121.046C21.4569 115.367 21.3684 105.945 29.063 100.088C32.8459 97.0525 35.4729 92.7975 36.5011 88.0404C37.5293 83.2833 36.8958 78.315 34.7074 73.973C30.1134 65.4293 34.0999 56.8983 43.5663 55.0011C48.2801 53.9137 52.4778 51.2262 55.4534 47.3907C58.429 43.5551 60.0009 38.8056 59.9047 33.941C59.4491 24.2513 66.7135 18.3051 76.104 20.7243C80.8252 21.8036 85.7717 21.2142 90.1118 19.0553C94.4518 16.8963 97.9205 13.2996 99.9345 8.87005C103.731 -0.0429309 112.805 -2.25844 120.184 4.00611C123.969 7.04156 128.679 8.67217 133.519 8.62347C138.36 8.57477 143.036 6.84973 146.76 3.73872C154.012 -2.62769 163.213 -0.679574 167.111 8.18248C169.21 12.5679 172.748 16.0916 177.127 18.1602C181.507 20.2289 186.461 20.7162 191.156 19.5402C200.446 16.9936 207.824 22.7234 207.609 32.4258C207.612 37.2965 209.282 42.0175 212.338 45.795C215.394 49.5724 219.65 52.1759 224.39 53.1676C233.894 54.861 238.045 63.3538 233.616 71.9358C231.516 76.3252 230.984 81.3086 232.109 86.0467C233.234 90.7848 235.947 94.9881 239.792 97.949C247.613 103.628 247.714 113.05 240.007 118.882C236.215 121.916 233.578 126.171 232.539 130.932C231.499 135.693 232.121 140.669 234.299 145.022C238.906 153.553 234.919 162.084 225.44 163.981C220.723 165.069 216.522 167.758 213.544 171.596C210.567 175.434 208.993 180.186 209.089 185.054C209.545 194.744 202.281 200.69 192.941 198.271C188.216 197.185 183.263 197.771 178.918 199.931C174.573 202.09 171.1 205.69 169.085 210.125Z" fill="url(#paint0_linear_1898_2849)"/>
<path d="M72.2173 79.8925H80.1284V85.311H65.1371V59.8439H72.2173V79.8925ZM89.9616 59.8439V85.311H82.8814V59.8439H89.9616ZM123.723 59.8439V85.311H116.643V71.2589L111.839 85.311H105.914L101.074 71.1506V85.311H93.9936V59.8439H102.555L108.949 76.3885L115.198 59.8439H123.723ZM134.834 59.8439V85.311H127.754V59.8439H134.834ZM158.048 59.8439V65.4792H151.256V85.311H144.176V65.4792H137.457V59.8439H158.048ZM167.747 65.5153V69.6695H175.875V75.0519H167.747V79.6396H176.959V85.311H160.667V59.8439H176.959V65.5153H167.747ZM190.536 59.8439C193.209 59.8439 195.545 60.3857 197.544 61.4695C199.567 62.5291 201.12 64.0222 202.204 65.9488C203.288 67.8754 203.829 70.0789 203.829 72.5594C203.829 75.0158 203.276 77.2073 202.168 79.1339C201.084 81.0605 199.531 82.5777 197.508 83.6855C195.509 84.7692 193.185 85.311 190.536 85.311H180.457V59.8439H190.536ZM189.994 79.0617C192.065 79.0617 193.691 78.4957 194.871 77.3638C196.051 76.232 196.641 74.6305 196.641 72.5594C196.641 70.4642 196.051 68.8507 194.871 67.7188C193.691 66.5629 192.065 65.9849 189.994 65.9849H187.538V79.0617H189.994ZM112.029 93.8439V99.4792H105.238V119.311H98.1573V99.4792H91.4383V93.8439H112.029ZM121.729 93.8439V119.311H114.648V93.8439H121.729ZM155.49 93.8439V119.311H148.41V105.259L143.606 119.311H137.681L132.841 105.151V119.311H125.761V93.8439H134.322L140.716 110.389L146.965 93.8439H155.49ZM166.601 99.5153V103.67H174.729V109.052H166.601V113.64H175.812V119.311H159.521V93.8439H175.812V99.5153H166.601Z" fill="#282828"/>
<g filter="url(#filter0_f_1898_2849)">
<path d="M6.53125 145.172L81.2545 137.711C115.638 134.278 150.276 134.254 184.664 137.642L261.112 145.172L237.443 162.96L258.226 189.356L204.439 183.196C156.937 177.757 108.971 177.732 61.4636 183.122L6.53125 189.356L24.4269 165.829L6.53125 145.172Z" fill="black" fill-opacity="0.32"/>
</g>
<path d="M6.53125 136.762L81.2545 129.3C115.638 125.867 150.276 125.844 184.664 129.231L261.112 136.762L237.443 154.55L258.226 180.945L204.439 174.786C156.937 169.346 108.971 169.321 61.4636 174.712L6.53125 180.945L24.4269 157.419L6.53125 136.762Z" fill="url(#paint1_linear_1898_2849)"/>
<path d="M89.2266 162.603C86.7627 162.603 84.4979 162.03 82.4322 160.885C80.3665 159.716 78.7239 158.11 77.5044 156.07C76.3098 154.004 75.7125 151.677 75.7125 149.088C75.7125 146.5 76.3098 144.186 77.5044 142.145C78.7239 140.079 80.3665 138.474 82.4322 137.329C84.4979 136.184 86.7627 135.612 89.2266 135.612C91.7154 135.612 93.9802 136.184 96.021 137.329C98.0867 138.474 99.7169 140.079 100.912 142.145C102.106 144.186 102.703 146.5 102.703 149.088C102.703 151.677 102.106 154.004 100.912 156.07C99.7169 158.11 98.0867 159.716 96.021 160.885C93.9553 162.03 91.6905 162.603 89.2266 162.603ZM89.2266 155.808C91.0932 155.808 92.5616 155.198 93.6318 153.979C94.7269 152.759 95.2744 151.129 95.2744 149.088C95.2744 146.998 94.7269 145.355 93.6318 144.161C92.5616 142.941 91.0932 142.331 89.2266 142.331C87.3351 142.331 85.8543 142.941 84.7841 144.161C83.7139 145.355 83.1789 146.998 83.1789 149.088C83.1789 151.154 83.7139 152.797 84.7841 154.016C85.8543 155.211 87.3351 155.808 89.2266 155.808ZM123.837 136.022V141.846H113.31V146.475H121.075V152.038H113.31V162.341H105.993V136.022H123.837ZM144.764 136.022V141.846H134.236V146.475H142.001V152.038H134.236V162.341H126.919V136.022H144.764ZM155.162 141.883V146.177H163.562V151.739H155.162V156.48H164.682V162.341H147.845V136.022H164.682V141.883H155.162ZM181.625 162.341L176.399 152.635H175.615V162.341H168.298V136.022H179.833C181.949 136.022 183.741 136.396 185.209 137.142C186.677 137.864 187.785 138.872 188.532 140.166C189.278 141.435 189.651 142.866 189.651 144.459C189.651 146.251 189.154 147.832 188.158 149.2C187.188 150.544 185.757 151.503 183.865 152.075L189.801 162.341H181.625ZM175.615 147.633H179.236C180.231 147.633 180.978 147.396 181.476 146.923C181.974 146.45 182.222 145.766 182.222 144.87C182.222 144.024 181.961 143.364 181.438 142.891C180.941 142.394 180.207 142.145 179.236 142.145H175.615V147.633Z" fill="white"/>
<path d="M57.0792 146.153C57.3941 145.184 58.7652 145.184 59.0802 146.153L60.4415 150.343C60.5823 150.776 60.9863 151.07 61.442 151.07H65.8475C66.8665 151.07 67.2903 152.374 66.4658 152.973L62.9017 155.562C62.533 155.83 62.3787 156.305 62.5196 156.738L63.8809 160.928C64.1958 161.897 63.0865 162.703 62.2621 162.104L58.698 159.515C58.3293 159.247 57.83 159.247 57.4613 159.515L53.8972 162.104C53.0728 162.703 51.9635 161.897 52.2784 160.928L53.6398 156.738C53.7806 156.305 53.6263 155.83 53.2576 155.562L49.6935 152.973C48.8691 152.374 49.2928 151.07 50.3119 151.07H54.7173C55.1731 151.07 55.577 150.776 55.7178 150.343L57.0792 146.153Z" fill="white"/>
<path d="M210.673 146.153C210.988 145.184 212.359 145.184 212.674 146.153L214.035 150.343C214.176 150.776 214.58 151.07 215.036 151.07H219.441C220.46 151.07 220.884 152.374 220.06 152.973L216.495 155.562C216.127 155.83 215.972 156.305 216.113 156.738L217.475 160.928C217.79 161.897 216.68 162.703 215.856 162.104L212.292 159.515C211.923 159.247 211.424 159.247 211.055 159.515L207.491 162.104C206.667 162.703 205.557 161.897 205.872 160.928L207.234 156.738C207.374 156.305 207.22 155.83 206.851 155.562L203.287 152.973C202.463 152.374 202.887 151.07 203.906 151.07H208.311C208.767 151.07 209.171 150.776 209.312 150.343L210.673 146.153Z" fill="white"/>
<path d="M102.301 24.1168C102.616 23.1476 103.987 23.1476 104.302 24.1168L105.427 27.5797C105.568 28.0132 105.972 28.3066 106.427 28.3066H110.068C111.087 28.3066 111.511 29.6107 110.687 30.2097L107.741 32.3499C107.372 32.6178 107.218 33.0926 107.359 33.5261L108.484 36.989C108.799 37.9582 107.69 38.7642 106.865 38.1651L103.919 36.0249C103.551 35.7571 103.051 35.7571 102.683 36.0249L99.737 38.1651C98.9126 38.7642 97.8033 37.9582 98.1182 36.989L99.2434 33.5261C99.3842 33.0926 99.2299 32.6178 98.8612 32.3499L95.9155 30.2097C95.091 29.6107 95.5147 28.3066 96.5338 28.3066H100.175C100.631 28.3066 101.035 28.0132 101.175 27.5797L102.301 24.1168Z" fill="white"/>
<path d="M133.86 15.7008C134.175 14.7316 135.546 14.7316 135.861 15.7008L137.931 22.0713C138.072 22.5048 138.476 22.7982 138.932 22.7982H145.63C146.649 22.7982 147.073 24.1023 146.248 24.7013L140.829 28.6385C140.46 28.9064 140.306 29.3812 140.447 29.8147L142.517 36.1852C142.832 37.1544 141.723 37.9604 140.898 37.3614L135.479 33.4242C135.11 33.1563 134.611 33.1563 134.242 33.4242L128.823 37.3614C127.999 37.9604 126.889 37.1544 127.204 36.1852L129.274 29.8147C129.415 29.3812 129.261 28.9064 128.892 28.6385L123.473 24.7013C122.649 24.1023 123.072 22.7982 124.091 22.7982H130.79C131.245 22.7982 131.649 22.5048 131.79 22.0713L133.86 15.7008Z" fill="white"/>
<path d="M165.418 24.1168C165.733 23.1476 167.104 23.1476 167.419 24.1168L168.544 27.5797C168.685 28.0132 169.089 28.3066 169.544 28.3066H173.186C174.205 28.3066 174.628 29.6107 173.804 30.2097L170.858 32.3499C170.489 32.6178 170.335 33.0926 170.476 33.5261L171.601 36.989C171.916 37.9582 170.807 38.7642 169.982 38.1651L167.037 36.0249C166.668 35.7571 166.169 35.7571 165.8 36.0249L162.854 38.1651C162.03 38.7642 160.92 37.9582 161.235 36.989L162.361 33.5261C162.501 33.0926 162.347 32.6178 161.978 32.3499L159.033 30.2097C158.208 29.6107 158.632 28.3066 159.651 28.3066H163.292C163.748 28.3066 164.152 28.0132 164.293 27.5797L165.418 24.1168Z" fill="white"/>
<path d="M108.626 184.018C108.941 183.048 110.312 183.048 110.627 184.018L111.28 186.027C111.421 186.46 111.825 186.754 112.281 186.754H114.393C115.412 186.754 115.836 188.058 115.011 188.657L113.302 189.898C112.934 190.166 112.779 190.641 112.92 191.075L113.573 193.084C113.888 194.053 112.779 194.859 111.954 194.26L110.245 193.018C109.876 192.75 109.377 192.75 109.008 193.018L107.299 194.26C106.475 194.859 105.366 194.053 105.681 193.084L106.333 191.075C106.474 190.641 106.32 190.166 105.951 189.898L104.242 188.657C103.418 188.058 103.841 186.754 104.861 186.754H106.973C107.429 186.754 107.833 186.46 107.974 186.027L108.626 184.018Z" fill="white"/>
<path d="M133.882 185.84C134.213 184.906 135.534 184.906 135.865 185.84L137.46 190.338C137.609 190.758 138.006 191.038 138.451 191.038H143.402C144.444 191.038 144.852 192.389 143.986 192.966L140.142 195.526C139.741 195.793 139.573 196.299 139.734 196.753L141.238 200.997C141.576 201.95 140.505 202.785 139.663 202.224L135.457 199.423C135.104 199.188 134.644 199.188 134.291 199.423L130.084 202.224C129.243 202.785 128.172 201.95 128.51 200.997L130.014 196.753C130.175 196.299 130.007 195.793 129.606 195.526L125.762 192.966C124.896 192.389 125.304 191.038 126.345 191.038H131.296C131.742 191.038 132.139 190.758 132.288 190.338L133.882 185.84Z" fill="white"/>
<path d="M159.103 184.018C159.418 183.048 160.789 183.048 161.104 184.018L161.757 186.027C161.898 186.46 162.301 186.754 162.757 186.754H164.87C165.889 186.754 166.312 188.058 165.488 188.657L163.779 189.898C163.41 190.166 163.256 190.641 163.397 191.075L164.05 193.084C164.365 194.053 163.255 194.859 162.431 194.26L160.722 193.018C160.353 192.75 159.854 192.75 159.485 193.018L157.776 194.26C156.952 194.859 155.842 194.053 156.157 193.084L156.81 191.075C156.951 190.641 156.797 190.166 156.428 189.898L154.719 188.657C153.894 188.058 154.318 186.754 155.337 186.754H157.45C157.905 186.754 158.309 186.46 158.45 186.027L159.103 184.018Z" fill="white"/>
<defs>
<filter id="filter0_f_1898_2849" x="0.640127" y="129.228" width="266.36" height="66.0191" filterUnits="userSpaceOnUse" color-interpolation-filters="sRGB">
<feFlood flood-opacity="0" result="BackgroundImageFix"/>
<feBlend mode="normal" in="SourceGraphic" in2="BackgroundImageFix" result="shape"/>
<feGaussianBlur stdDeviation="2.94556" result="effect1_foregroundBlur_1898_2849"/>
</filter>
<linearGradient id="paint0_linear_1898_2849" x1="23.3516" y1="109.5" x2="245.723" y2="109.5" gradientUnits="userSpaceOnUse">
<stop stop-color="#F6A104"/>
<stop offset="0.27" stop-color="#FFECB3"/>
<stop offset="0.55" stop-color="#FFC107"/>
<stop offset="1" stop-color="#E66800"/>
</linearGradient>
<linearGradient id="paint1_linear_1898_2849" x1="6.53125" y1="152.541" x2="273.554" y2="151.606" gradientUnits="userSpaceOnUse">
<stop stop-color="#FF4E00"/>
<stop offset="0.453116" stop-color="#FFA177"/>
<stop offset="1" stop-color="#FF3D17"/>
</linearGradient>
</defs>
</svg>
