<svg xmlns="http://www.w3.org/2000/svg" width="30" height="30" viewBox="0 0 30 30" fill="none">
  <g clip-path="url(#clip0_1966_1958)">
    <path d="M0 2.32966C0 1.15506 0.976054 0.203125 2.18035 0.203125H27.5095C28.7138 0.203125 29.6899 1.15506 29.6899 2.32966V27.7665C29.6899 28.9411 28.7138 29.893 27.5095 29.893H2.18035C0.976054 29.893 0 28.9411 0 27.7665V2.32966ZM9.17231 25.0573V11.6504H4.71698V25.0573H9.17231ZM6.94557 9.81893C8.49872 9.81893 9.4655 8.79092 9.4655 7.50312C9.43766 6.18749 8.50058 5.18731 6.97526 5.18731C5.44995 5.18731 4.45348 6.18934 4.45348 7.50312C4.45348 8.79092 5.42026 9.81893 6.91588 9.81893H6.94557ZM16.0529 25.0573V17.5698C16.0529 17.169 16.0826 16.7682 16.2014 16.4824C16.5224 15.6827 17.2554 14.8532 18.4875 14.8532C20.1 14.8532 20.7439 16.0816 20.7439 17.8853V25.0573H25.1993V17.3676C25.1993 13.2481 23.0022 11.3331 20.0703 11.3331C17.7063 11.3331 16.6467 12.632 16.0529 13.5469V13.5933H16.0232L16.0529 13.5469V11.6504H11.5995C11.6551 12.9085 11.5995 25.0573 11.5995 25.0573H16.0529Z" fill="black"/>
  </g>
  <defs>
    <clipPath id="clip0_1966_1958">
      <rect y="0.203125" width="29.6899" height="29.6899" rx="5.56685" fill="white"/>
    </clipPath>
  </defs>
</svg>