<svg xmlns="http://www.w3.org/2000/svg" width="47" height="48" viewBox="0 0 47 48" fill="none">
  <path fill-rule="evenodd" clip-rule="evenodd" d="M10.0658 8.46484C8.51923 8.46484 7.03598 9.07923 5.94237 10.1728C4.84876 11.2664 4.23438 12.7497 4.23438 14.2963V16.2401H43.1107V14.2963C43.1107 12.7497 42.4963 11.2664 41.4027 10.1728C40.3091 9.07923 38.8258 8.46484 37.2793 8.46484H10.0658ZM43.1107 20.1277H4.23438V33.7345C4.23438 35.281 4.84876 36.7643 5.94237 37.8579C7.03598 38.9515 8.51923 39.5659 10.0658 39.5659H37.2793C38.8258 39.5659 40.3091 38.9515 41.4027 37.8579C42.4963 36.7643 43.1107 35.281 43.1107 33.7345V20.1277ZM15.8973 29.8468C15.8973 29.3313 16.1021 28.8369 16.4666 28.4723C16.8311 28.1078 17.3256 27.903 17.8411 27.903H26.4211L26.1859 27.6678C25.8212 27.3033 25.6161 26.8089 25.616 26.2932C25.6158 25.7776 25.8204 25.283 26.1849 24.9183C26.5494 24.5535 27.0438 24.3485 27.5595 24.3483C28.0751 24.3482 28.5697 24.5528 28.9344 24.9173L32.4877 28.4725C32.8522 28.8371 33.0569 29.3314 33.0569 29.8468C33.0569 30.3623 32.8522 30.8566 32.4877 31.2211L28.9344 34.7744C28.7551 34.9601 28.5406 35.1081 28.3035 35.21C28.0663 35.3119 27.8113 35.3655 27.5532 35.3677C27.2951 35.37 27.0391 35.3208 26.8002 35.2231C26.5613 35.1253 26.3443 34.981 26.1618 34.7985C25.9793 34.616 25.835 34.3989 25.7372 34.1601C25.6395 33.9212 25.5903 33.6652 25.5925 33.4071C25.5948 33.149 25.6484 32.8939 25.7503 32.6568C25.8522 32.4196 26.0002 32.2052 26.1859 32.0258L26.4211 31.7906H17.8411C17.3256 31.7906 16.8311 31.5858 16.4666 31.2213C16.1021 30.8568 15.8973 30.3624 15.8973 29.8468Z" fill="white" fill-opacity="0.8"/>
  <path fill-rule="evenodd" clip-rule="evenodd" d="M10.0658 8.46484C8.51923 8.46484 7.03598 9.07923 5.94237 10.1728C4.84876 11.2664 4.23438 12.7497 4.23438 14.2963V16.2401H43.1107V14.2963C43.1107 12.7497 42.4963 11.2664 41.4027 10.1728C40.3091 9.07923 38.8258 8.46484 37.2793 8.46484H10.0658ZM43.1107 20.1277H4.23438V33.7345C4.23438 35.281 4.84876 36.7643 5.94237 37.8579C7.03598 38.9515 8.51923 39.5659 10.0658 39.5659H37.2793C38.8258 39.5659 40.3091 38.9515 41.4027 37.8579C42.4963 36.7643 43.1107 35.281 43.1107 33.7345V20.1277ZM15.8973 29.8468C15.8973 29.3313 16.1021 28.8369 16.4666 28.4723C16.8311 28.1078 17.3256 27.903 17.8411 27.903H26.4211L26.1859 27.6678C25.8212 27.3033 25.6161 26.8089 25.616 26.2932C25.6158 25.7776 25.8204 25.283 26.1849 24.9183C26.5494 24.5535 27.0438 24.3485 27.5595 24.3483C28.0751 24.3482 28.5697 24.5528 28.9344 24.9173L32.4877 28.4725C32.8522 28.8371 33.0569 29.3314 33.0569 29.8468C33.0569 30.3623 32.8522 30.8566 32.4877 31.2211L28.9344 34.7744C28.7551 34.9601 28.5406 35.1081 28.3035 35.21C28.0663 35.3119 27.8113 35.3655 27.5532 35.3677C27.2951 35.37 27.0391 35.3208 26.8002 35.2231C26.5613 35.1253 26.3443 34.981 26.1618 34.7985C25.9793 34.616 25.835 34.3989 25.7372 34.1601C25.6395 33.9212 25.5903 33.6652 25.5925 33.4071C25.5948 33.149 25.6484 32.8939 25.7503 32.6568C25.8522 32.4196 26.0002 32.2052 26.1859 32.0258L26.4211 31.7906H17.8411C17.3256 31.7906 16.8311 31.5858 16.4666 31.2213C16.1021 30.8568 15.8973 30.3624 15.8973 29.8468Z" fill="url(#paint0_linear_1898_2820)" fill-opacity="0.8"/>
  <defs>
    <linearGradient id="paint0_linear_1898_2820" x1="24.1814" y1="39.5659" x2="23.8026" y2="9.85746" gradientUnits="userSpaceOnUse">
      <stop stop-color="white"/>
      <stop offset="1" stop-color="#FFEEC5"/>
    </linearGradient>
  </defs>
</svg>