<svg xmlns="http://www.w3.org/2000/svg" width="38" height="45" viewBox="0 0 38 45" fill="none">
  <g clip-path="url(#clip0_1966_1964)">
    <path fill-rule="evenodd" clip-rule="evenodd" d="M19.0483 7.64453C20.6349 7.64453 22.2623 7.68535 23.8396 7.75216L25.7026 7.84123L27.4858 7.947L29.1559 8.06019L30.6812 8.17895C32.3365 8.30565 33.8941 9.01202 35.08 10.1738C36.2659 11.3356 37.0041 12.8784 37.1647 14.5307L37.239 15.3194L37.3781 17.008C37.508 18.7578 37.6045 20.6654 37.6045 22.4895C37.6045 24.3135 37.508 26.2211 37.3781 27.971L37.239 29.6596C37.2148 29.9305 37.1907 30.1921 37.1647 30.4482C37.004 32.1008 36.2656 33.6439 35.0793 34.8057C33.893 35.9675 32.335 36.6737 30.6794 36.8L29.1577 36.9169L27.4877 37.0319L25.7026 37.1377L23.8396 37.2268C22.2434 37.2961 20.646 37.332 19.0483 37.3344C17.4507 37.332 15.8533 37.2961 14.2571 37.2268L12.3941 37.1377L10.6109 37.0319L8.94081 36.9169L7.41549 36.8C5.76019 36.6733 4.20259 35.9669 3.0167 34.8051C1.83082 33.6433 1.09262 32.1006 0.931969 30.4482L0.857744 29.6596L0.718573 27.971C0.576688 26.1471 0.501176 24.3188 0.492188 22.4895C0.492187 20.6654 0.58868 18.7578 0.718573 17.008L0.857744 15.3194C0.881867 15.0484 0.90599 14.7868 0.931969 14.5307C1.09255 12.8787 1.83049 11.3361 3.016 10.1744C4.2015 9.01262 5.75866 8.30606 7.41364 8.17895L8.9371 8.06019L10.6072 7.947L12.3923 7.84123L14.2553 7.75216C15.8521 7.68282 17.4501 7.64693 19.0483 7.64453ZM15.3371 17.9896V26.9893C15.3371 27.8466 16.2649 28.381 17.0072 27.9543L24.8008 23.4544C24.9703 23.3568 25.1112 23.2162 25.2092 23.0468C25.3071 22.8774 25.3587 22.6851 25.3587 22.4895C25.3587 22.2938 25.3071 22.1016 25.2092 21.9322C25.1112 21.7628 24.9703 21.6222 24.8008 21.5245L17.0072 17.0265C16.8379 16.9288 16.6458 16.8773 16.4503 16.8774C16.2548 16.8774 16.0628 16.9289 15.8935 17.0267C15.7242 17.1245 15.5837 17.2652 15.486 17.4345C15.3883 17.6039 15.337 17.796 15.3371 17.9914V17.9896Z" fill="black"/>
  </g>
  <defs>
    <clipPath id="clip0_1966_1964">
      <rect width="37.5293" height="44.097" fill="white" transform="translate(0.46875)"/>
    </clipPath>
  </defs>
</svg>